<svg width="654" height="330" viewBox="0 0 654 330" fill="none" xmlns="http://www.w3.org/2000/svg">
<path d="M0.595703 2.03125C0.595703 1.47897 1.04342 1.03125 1.5957 1.03125H652.439C652.991 1.03125 653.439 1.47897 653.439 2.03125V9.50147C653.439 13.3675 650.305 16.5015 646.439 16.5015H7.59571C3.72972 16.5015 0.595703 13.3675 0.595703 9.50147V2.03125Z" fill="#662F10"/>
<rect x="55.2568" y="18" width="91.79" height="5.15674" fill="#A67958"/>
<rect x="55.2568" y="327.405" width="91.79" height="2.0627" fill="#947D63"/>
<rect x="63.5078" y="24.1885" width="75.2884" height="302.185" fill="#A67958"/>
<rect x="200" y="327.405" width="91.79" height="2.0627" fill="#947D63"/>
<rect x="208.251" y="24.1885" width="75.2884" height="302.185" fill="#A67958"/>
<rect x="200" y="18" width="91.79" height="5.15674" fill="#A67958"/>
<rect x="345" y="327.405" width="91.79" height="2.0627" fill="#947D63"/>
<rect x="353.25" y="24.1885" width="75.2884" height="302.185" fill="#A67958"/>
<rect x="345" y="18" width="91.79" height="5.15674" fill="#A67958"/>
<rect x="490" y="327.404" width="91.79" height="2.0627" fill="#947D63"/>
<rect x="498.251" y="24.1885" width="75.2884" height="302.185" fill="#A67958"/>
<rect x="490" y="18" width="91.79" height="5.15674" fill="#A67958"/>
<path d="M8 2C8 0.89543 8.89543 0 10 0H643C644.105 0 645 0.895431 645 2V6C645 7.65685 643.657 9 642 9H11C9.34316 9 8 7.65685 8 6V2Z" fill="#CFCFCF"/>
<path d="M530.528 30.6652H530.461L530.922 37.8197H530V29.1855H532.243L534.486 34.4281H534.539L536.463 29.1855H538.772V37.8208H536.595V30.6652H536.529L533.825 37.9428H533.627L530.528 30.6652Z" fill="black"/>
<path d="M542.399 29.5553L543.982 29H544.048L546.951 37.8203H544.708L543.956 35.3531H541.344L540.75 37.8203H539.629L542.399 29.5553ZM543.81 34.8599L542.531 30.6658H542.465L541.462 34.8599H543.81Z" fill="black"/>
<path d="M548.335 30.2341H548.269L548.994 37.8208H547.808V29.1855H550.051L553.349 33.8728H553.415L552.954 29.1855H553.943V37.9438H553.745L548.335 30.2341Z" fill="black"/>
<path d="M559.019 37.8323C558.474 37.8323 557.974 37.7471 557.522 37.5778C557.069 37.4074 556.679 37.1508 556.354 36.8069C556.029 36.463 555.776 36.0297 555.596 35.5081C555.416 34.9865 555.326 34.3776 555.326 33.6813C555.326 32.9851 555.436 32.3584 555.656 31.801C555.875 31.2436 556.17 30.7714 556.54 30.3833C556.909 29.9963 557.332 29.6976 557.806 29.4873C558.281 29.278 558.774 29.1729 559.283 29.1729C559.829 29.1729 560.327 29.258 560.781 29.4274C561.234 29.5977 561.622 29.8543 561.948 30.1982C562.273 30.5421 562.526 30.9754 562.706 31.497C562.886 32.0187 562.976 32.6276 562.976 33.3238C562.976 34.02 562.866 34.6468 562.647 35.2042C562.426 35.7615 562.133 36.2348 561.763 36.6218C561.394 37.0088 560.971 37.3075 560.496 37.5178C560.021 37.7271 559.529 37.8323 559.019 37.8323ZM559.151 37.4011C559.344 37.4011 559.533 37.3496 559.718 37.2475C559.902 37.1455 560.065 36.952 560.206 36.6691C560.346 36.3852 560.459 35.9898 560.542 35.4818C560.625 34.9738 560.667 34.3145 560.667 33.5036C560.667 32.6928 560.625 32.0334 560.542 31.5254C560.459 31.0175 560.346 30.622 560.206 30.3381C560.065 30.0541 559.902 29.8617 559.718 29.7597C559.533 29.6577 559.343 29.6061 559.151 29.6061C558.958 29.6061 558.757 29.6577 558.577 29.7597C558.397 29.8617 558.236 30.0552 558.096 30.3381C557.955 30.622 557.842 31.0175 557.759 31.5254C557.676 32.0334 557.634 32.6928 557.634 33.5036C557.634 34.3145 557.676 34.9738 557.759 35.4818C557.842 35.9898 557.955 36.3852 558.096 36.6691C558.236 36.9531 558.397 37.1455 558.577 37.2475C558.757 37.3496 558.948 37.4011 559.151 37.4011Z" fill="black"/>
<path d="M564.889 30.2341H564.823L565.548 37.8208H564.361V29.1855H566.604L569.902 33.8728H569.969L569.508 29.1855H570.496V37.9438H570.298L564.89 30.2341H564.889Z" fill="black"/>
</svg>
